<svg xmlns="http://www.w3.org/2000/svg" viewBox="0 0 1200 760" role="img" aria-labelledby="title desc">
  <title id="title">PIX PARCELADO</title>
  <desc id="desc">risco em movimento</desc>
  <rect width="1200" height="760" fill="#f4f0e9"/>
  <path d="M0 94H1200M0 650H1200M72 0V760M1128 0V760" stroke="#d9d1c5" stroke-width="1" opacity=".8"/>
  <circle cx="1038" cy="100" r="180" fill="#7652a8" opacity=".08"/>
  <circle cx="110" cy="650" r="142" fill="#bb8754" opacity=".08"/>
  <text x="86" y="112" fill="#3d235c" font-family="Arial, sans-serif" font-size="18" font-weight="800" letter-spacing="1.5">PIX PARCELADO</text><text x="86" y="143" fill="#6c6670" font-family="Arial, sans-serif" font-size="15" font-weight="650" letter-spacing="1.5">risco em movimento</text><text x="86" y="708" fill="#6c6670" font-family="Arial, sans-serif" font-size="13" font-weight="650" letter-spacing="1.5">FILIPE GUARDIA · CADERNO DE SISTEMAS REAIS</text><rect x="150" y="285" width="220" height="150" rx="14" fill="#fffdf8" stroke="#d9d1c5" stroke-width="3"/><text x="170" y="366" fill="#3d235c" font-family="Arial, sans-serif" font-size="15" font-weight="800" letter-spacing="1.5">CLIENTE</text><rect x="490" y="225" width="220" height="270" rx="14" fill="#3d235c" stroke="#3d235c" stroke-width="3"/><text x="510" y="366" fill="#fffdf8" font-family="Arial, sans-serif" font-size="15" font-weight="800" letter-spacing="1.5">BANCO</text><rect x="830" y="285" width="220" height="150" rx="14" fill="#fffdf8" stroke="#2e7564" stroke-width="3"/><text x="850" y="366" fill="#2e7564" font-family="Arial, sans-serif" font-size="15" font-weight="800" letter-spacing="1.5">EMPRESA</text><path d="M370 360L490 360" stroke="#bb8754" stroke-width="8"  fill="none"/><path d="M710 360L830 360" stroke="#2e7564" stroke-width="8"  fill="none"/><circle cx="430" cy="360" r="14" fill="#bb8754" stroke="#fffdf8" stroke-width="4"/><circle cx="770" cy="360" r="14" fill="#2e7564" stroke="#fffdf8" stroke-width="4"/><text x="190" y="540" fill="#6c6670" font-family="Arial, sans-serif" font-size="15" font-weight="650" letter-spacing="1.5">paga parcelado</text><text x="530" y="540" fill="#bb8754" font-family="Arial, sans-serif" font-size="15" font-weight="650" letter-spacing="1.5">assume risco</text><text x="850" y="540" fill="#2e7564" font-family="Arial, sans-serif" font-size="15" font-weight="650" letter-spacing="1.5">recebe à vista</text>
</svg>
